# xmcd
#
# Track frame offsets:
#	150
#	12967
#	38550
#	48330
#	71797
#	89122
#	111582
#	125025
#	142227
#	153502
#	169762
#	183757
#	207840
#	227480
#	245145
#	264305
#	275975
#
# Disc length: 3876
#
# Revision: 3
# Processed by: cddbd v1.5.1PL0 Copyright (c) Steve Scherf et al.
# Submitted via: audiograbber 1.82.02
# Normalized: r2:DSETVAR1
#
DISCID=040f2211
DTITLE=Various Artist - Enjoy Your Own Blues
DYEAR=1994
DGENRE=Blues
TTITLE0=J.J Cale - Cocaine
TTITLE1=Gary Moore - Boggie My Way Back Home
TTITLE2=James Brown - Messing With The Blues
TTITLE3=Tony Joe White - (You're gonna Look) Good In Blues
TTITLE4=Delbert McClinton - B Movie Boxcar Blues
TTITLE5=The Allman Brothers Band - It's Not My Cross To Bear
TTITLE6=Fleetwood Mac - My Heart Beat Like A Hammer
TTITLE7=The Robert Cray band - Don't Be Afraid Of The Dark
TTITLE8=Dinah Washington - Salty Papa Blues
TTITLE9=Mulens Portland Combo - Ain't That  I Don t Love You
TTITLE10=Bo Diddley - Before You Accuse Me
TTITLE11=John Mayall - Sensetive Kind
TTITLE12=Johnny Winter - Everybody's Blues
TTITLE13=The Fabulous Thunderbirds - How Do You Spell Love
TTITLE14=Reidar Larsen - Rain, Rain, Rain
TTITLE15=Nina Simone - I Put a Spell on You
TTITLE16=5 Blue Men - The Train
EXTD=
EXTT0=
EXTT1=
EXTT2=
EXTT3=
EXTT4=
EXTT5=
EXTT6=
EXTT7=
EXTT8=
EXTT9=
EXTT10=
EXTT11=
EXTT12=
EXTT13=
EXTT14=
EXTT15=
EXTT16=
PLAYORDER=
